<?xml version="1.0" standalone="no"?>
<!DOCTYPE svg PUBLIC "-//W3C//DTD SVG 20010904//EN"
 "http://www.w3.org/TR/2001/REC-SVG-20010904/DTD/svg10.dtd">
<svg version="1.0" xmlns="http://www.w3.org/2000/svg"
 width="288.000000pt" height="288.000000pt" viewBox="0 0 288.000000 288.000000"
 preserveAspectRatio="xMidYMid meet">

<g transform="translate(0.000000,288.000000) scale(0.100000,-0.100000)"
fill="#000000" stroke="none">
<path d="M1215 2815 c-296 -47 -544 -169 -757 -374 -404 -386 -542 -963 -357
-1487 192 -544 668 -901 1254 -941 167 -11 451 38 567 98 15 8 -25 60 -250
327 -642 762 -612 723 -630 809 -28 126 32 240 153 294 46 21 63 23 230 21
246 -2 426 -12 441 -26 9 -9 9 -15 -4 -30 -10 -11 -12 -17 -6 -13 6 3 17 -4
25 -15 8 -12 22 -28 31 -36 9 -9 14 -20 11 -26 -4 -7 -1 -6 8 0 11 9 17 9 27
-2 7 -7 12 -16 12 -19 -1 -26 1 -29 10 -15 7 10 10 11 11 3 1 -7 2 -17 3 -23
1 -12 15 -14 24 -4 4 4 1 4 -7 -1 -9 -5 -12 -4 -7 3 13 22 42 -1 37 -30 0 -4
7 -4 17 -1 14 6 15 4 5 -8 -11 -13 -7 -15 27 -14 31 1 40 -2 38 -14 -2 -10 5
-17 17 -17 11 -1 22 -3 25 -4 3 -1 19 -3 37 -3 17 -1 35 -5 39 -10 10 -9 27
-9 20 1 -2 4 14 8 37 9 27 1 35 -2 23 -6 -26 -10 -2 -20 38 -15 26 3 28 1 14
-12 -11 -11 -21 -12 -41 -5 -15 6 -29 6 -32 1 -3 -5 4 -11 15 -15 11 -4 17
-11 14 -17 -4 -5 -9 -6 -13 -2 -3 5 -15 16 -26 24 -11 8 -17 10 -12 5 4 -4 -3
-19 -15 -32 -19 -20 -19 -23 -4 -23 9 0 14 5 11 10 -3 6 3 10 14 10 12 0 21
-3 21 -8 0 -12 -89 -62 -110 -62 -10 0 -21 -4 -24 -9 -3 -5 -20 -11 -38 -14
-18 -3 -55 -10 -83 -16 -27 -5 -148 -10 -268 -10 -174 -1 -224 -4 -247 -16
-34 -18 -50 -43 -50 -80 0 -73 43 -95 192 -96 62 -1 149 -4 194 -7 l81 -7 43
-50 c23 -27 52 -61 64 -75 234 -272 291 -335 301 -338 19 -4 146 138 208 232
152 230 224 454 234 731 11 287 -47 524 -187 768 -278 487 -857 768 -1405 682z
m900 -585 c91 -18 213 -87 286 -159 104 -104 169 -266 155 -384 -4 -31 -12
-55 -17 -52 -5 4 -9 15 -9 25 0 12 -7 18 -19 17 -11 -1 -17 -6 -14 -14 4 -9 0
-11 -11 -7 -9 3 -13 10 -10 15 3 5 0 9 -6 9 -6 0 -22 12 -35 26 -16 17 -25 22
-26 13 0 -10 -2 -11 -6 -1 -2 6 -15 12 -28 12 -28 0 -44 18 -39 48 3 17 -1 22
-17 22 -11 0 -18 4 -15 8 6 11 -30 43 -39 34 -3 -4 -3 1 1 11 6 17 7 17 21 0
8 -11 7 -5 -3 14 -10 18 -22 29 -27 26 -5 -3 -13 1 -18 8 -7 11 -9 11 -9 1 0
-7 -4 -11 -10 -7 -5 3 -6 13 -3 23 6 15 5 16 -12 2 -10 -8 -16 -10 -12 -4 12
20 -68 38 -90 21 -7 -5 -17 -6 -22 -3 -12 8 -52 -24 -45 -36 3 -5 2 -7 -3 -6
-4 1 -22 -4 -40 -12 -21 -10 -34 -24 -39 -45 -6 -27 -7 -28 -11 -7 -6 28 -21
29 -19 0 1 -15 -5 -22 -21 -23 -36 -3 -40 -15 -5 -15 39 0 43 -20 5 -21 -16 0
-39 -3 -53 -5 -14 -3 -253 -7 -531 -11 -554 -6 -555 -6 -673 54 -63 32 -163
132 -198 199 -32 60 -58 152 -58 207 l0 40 838 -6 c510 -4 856 -10 887 -17z
m-1449 -884 c27 -29 72 -81 99 -115 28 -35 59 -72 70 -84 26 -29 92 -108 130
-156 17 -21 62 -74 100 -118 39 -44 96 -111 127 -149 31 -38 87 -105 123 -148
36 -44 65 -86 65 -94 0 -9 -7 -24 -17 -34 -15 -17 -41 -18 -403 -18 l-387 0
-13 25 c-11 20 -12 109 -6 472 5 287 11 452 18 460 20 24 45 13 94 -41z"/>
<path d="M2095 1290 c-3 -5 -1 -10 4 -10 6 0 11 5 11 10 0 6 -2 10 -4 10 -3 0
-8 -4 -11 -10z"/>
</g>
</svg>
